<svg xmlns="http://www.w3.org/2000/svg" width="25" height="25" viewBox="0 0 25 25"><path d="M.893,42.714H24.107A.893.893,0,0,0,25,41.821V40.036a.893.893,0,0,0-.893-.893H.893A.893.893,0,0,0,0,40.036v1.786A.893.893,0,0,0,.893,42.714ZM24.107,53.429H.893A.893.893,0,0,0,0,54.321v1.786A.893.893,0,0,0,.893,57H24.107A.893.893,0,0,0,25,56.107V54.321A.893.893,0,0,0,24.107,53.429ZM24.284,32H9.645a.715.715,0,0,0-.716.716v2.14a.715.715,0,0,0,.716.716h14.64A.715.715,0,0,0,25,34.855v-2.14A.715.715,0,0,0,24.284,32Zm0,14.286H9.645A.715.715,0,0,0,8.929,47v2.14a.715.715,0,0,0,.716.716h14.64A.715.715,0,0,0,25,49.141V47a.715.715,0,0,0-.716-.716Z" transform="translate(0 -32)"/></svg>