<svg xmlns="http://www.w3.org/2000/svg" width="23.932" height="25" viewBox="0 0 23.932 25"><path d="M42.271,23.6l-2.147-1.24a9.709,9.709,0,0,0,0-3.538l2.147-1.24a.609.609,0,0,0,.277-.706,12.553,12.553,0,0,0-2.757-4.768A.606.606,0,0,0,39.045,12L36.9,13.235a9.512,9.512,0,0,0-3.064-1.769V8.991a.6.6,0,0,0-.474-.59,12.671,12.671,0,0,0-5.5,0,.6.6,0,0,0-.474.59v2.48a9.813,9.813,0,0,0-3.065,1.769L22.175,12a.6.6,0,0,0-.746.116,12.478,12.478,0,0,0-2.757,4.768.6.6,0,0,0,.277.706L21.1,18.83a9.709,9.709,0,0,0,0,3.538l-2.147,1.24a.609.609,0,0,0-.277.706,12.553,12.553,0,0,0,2.757,4.768.606.606,0,0,0,.746.116l2.147-1.24a9.512,9.512,0,0,0,3.065,1.769v2.48a.6.6,0,0,0,.474.59,12.671,12.671,0,0,0,5.5,0,.6.6,0,0,0,.474-.59v-2.48A9.812,9.812,0,0,0,36.9,27.958L39.05,29.2a.6.6,0,0,0,.746-.116,12.478,12.478,0,0,0,2.757-4.768A.622.622,0,0,0,42.271,23.6ZM30.607,24.626a4.032,4.032,0,1,1,4.032-4.032A4.038,4.038,0,0,1,30.607,24.626Z" transform="translate(-18.644 -8.099)"/></svg>