<svg xmlns="http://www.w3.org/2000/svg" width="14.059" height="25" viewBox="0 0 14.059 25"><path d="M10.249,11.4,4.976,9.854a1.44,1.44,0,0,1,.405-2.822H8.619a2.98,2.98,0,0,1,1.67.513.761.761,0,0,0,.952-.1l1.7-1.66a.791.791,0,0,0-.088-1.2A6.9,6.9,0,0,0,8.628,3.125V.781A.784.784,0,0,0,7.847,0H6.285A.784.784,0,0,0,5.5.781V3.125H5.381A5.35,5.35,0,0,0,.059,8.965a5.59,5.59,0,0,0,4.092,4.717l5,1.465a1.44,1.44,0,0,1-.405,2.822H5.513a2.98,2.98,0,0,1-1.67-.513.761.761,0,0,0-.952.1l-1.7,1.66a.791.791,0,0,0,.088,1.2A6.9,6.9,0,0,0,5.5,21.875v2.344A.784.784,0,0,0,6.285,25H7.847a.784.784,0,0,0,.781-.781V21.865a5.516,5.516,0,0,0,5.161-3.55,5.362,5.362,0,0,0-3.54-6.919Z" transform="translate(-0.036)"/></svg>