<svg xmlns="http://www.w3.org/2000/svg" width="25" height="25" viewBox="0 0 25 25"><path d="M10.547,0h3.906a1.169,1.169,0,0,1,1.172,1.172v8.2h4.282A.975.975,0,0,1,20.6,11.04l-7.427,7.432a.946.946,0,0,1-1.333,0L4.4,11.04a.975.975,0,0,1,.688-1.665H9.375v-8.2A1.169,1.169,0,0,1,10.547,0ZM25,18.359v5.469A1.169,1.169,0,0,1,23.828,25H1.172A1.169,1.169,0,0,1,0,23.828V18.359a1.169,1.169,0,0,1,1.172-1.172H8.335l2.393,2.393a2.5,2.5,0,0,0,3.545,0l2.393-2.393h7.163A1.169,1.169,0,0,1,25,18.359Zm-6.055,4.3a.977.977,0,1,0-.977.977A.979.979,0,0,0,18.945,22.656Zm3.125,0a.977.977,0,1,0-.977.977A.979.979,0,0,0,22.07,22.656Z"/></svg>