<svg xmlns="http://www.w3.org/2000/svg" width="17.844" height="25" viewBox="0 0 17.844 25"><path d="M17.339,53.3a.669.669,0,0,0-.8-.523,11.724,11.724,0,0,1-2.535.3,7.184,7.184,0,0,1-6.778-4.768h6.344a.67.67,0,0,0,.653-.523l.356-1.583a.67.67,0,0,0-.653-.816H6.43a12.047,12.047,0,0,1,.008-2.357h8.18a.67.67,0,0,0,.654-.526l.363-1.66a.67.67,0,0,0-.654-.813H7.265a7.009,7.009,0,0,1,6.564-4.187,10.93,10.93,0,0,1,2.112.231.67.67,0,0,0,.781-.481l.669-2.476a.669.669,0,0,0-.52-.832A16.251,16.251,0,0,0,13.931,32,11.926,11.926,0,0,0,2.515,40.036H.67a.67.67,0,0,0-.67.67v1.66a.67.67,0,0,0,.67.67h1.2a16.566,16.566,0,0,0-.01,2.357H.67a.67.67,0,0,0-.67.67v1.583a.67.67,0,0,0,.67.67H2.35A11.69,11.69,0,0,0,13.931,57a13.918,13.918,0,0,0,3.41-.435.67.67,0,0,0,.49-.779Z" transform="translate(0 -32)"/></svg>