<svg xmlns="http://www.w3.org/2000/svg" width="32.142" height="25" viewBox="0 0 32.142 25"><path d="M31.278,42.82l-1.772-7.1A4.92,4.92,0,0,0,24.739,32a6.509,6.509,0,0,0-2.4.536.892.892,0,0,0-.565,1.129l.282.847a.894.894,0,0,0,.847.61,3.483,3.483,0,0,0,1.017-.291,2.235,2.235,0,0,1,2.987,1.537l1.656,6.623a7.531,7.531,0,0,0-10.91,3.294H14.489a7.532,7.532,0,0,0-10.91-3.295l1.656-6.623a2.235,2.235,0,0,1,2.987-1.537,3.492,3.492,0,0,0,1.017.291.894.894,0,0,0,.847-.61l.282-.847A.892.892,0,0,0,9.8,32.535,6.518,6.518,0,0,0,7.4,32a4.921,4.921,0,0,0-4.767,3.719L.864,42.82A22.057,22.057,0,0,0,0,49.411a7.573,7.573,0,0,0,15.133.446h1.876a7.573,7.573,0,0,0,15.133-.446A22.037,22.037,0,0,0,31.278,42.82ZM7.589,53.429a4.018,4.018,0,1,1,4.018-4.018A4.022,4.022,0,0,1,7.589,53.429Zm16.964,0a4.018,4.018,0,1,1,4.018-4.018A4.022,4.022,0,0,1,24.554,53.429Z" transform="translate(0 -32)"/></svg>