<svg xmlns="http://www.w3.org/2000/svg" width="25" height="25" viewBox="0 0 25 25"><path d="M24.664.932a.843.843,0,0,0-.6-.6A17.71,17.71,0,0,0,20.039,0C15,0,11.976,2.7,9.719,6.25H4.631A2.568,2.568,0,0,0,2.537,7.543L.123,12.368A1.387,1.387,0,0,0,0,12.891a1.172,1.172,0,0,0,1.172,1.172H6.241l-1.1,1.1a1.59,1.59,0,0,0,0,2.209l2.486,2.486a1.592,1.592,0,0,0,2.211,0l1.1-1.1v5.07A1.172,1.172,0,0,0,12.11,25a1.394,1.394,0,0,0,.523-.123l4.821-2.412a2.56,2.56,0,0,0,1.294-2.093v-5.1C22.292,13.012,25,9.98,25,4.966A17.332,17.332,0,0,0,24.664.932ZM18.752,8.2A1.953,1.953,0,1,1,20.706,6.25,1.953,1.953,0,0,1,18.752,8.2Z"/></svg>