<svg xmlns="http://www.w3.org/2000/svg" width="26.12" height="25" viewBox="0 0 26.12 25"><path d="M45.282,8.361l-7.133-1.04L34.961.857a1.564,1.564,0,0,0-2.8,0L28.97,7.321l-7.133,1.04a1.563,1.563,0,0,0-.864,2.666l5.16,5.029-1.221,7.1A1.561,1.561,0,0,0,27.178,24.8l6.381-3.354L39.94,24.8a1.563,1.563,0,0,0,2.265-1.645l-1.221-7.1,5.16-5.029a1.563,1.563,0,0,0-.864-2.666Zm-6.811,6.874,1.157,6.757L33.559,18.8l-6.069,3.188,1.157-6.757-4.912-4.785,6.786-.986,3.037-6.152L36.6,9.464l6.786.986-4.911,4.785Z" transform="translate(-20.5 0.013)"/></svg>