<svg xmlns="http://www.w3.org/2000/svg" width="25" height="24.996" viewBox="0 0 25 24.996"><path d="M14.453,18.821H10.547a1.169,1.169,0,0,1-1.172-1.172v-8.2H5.093A.975.975,0,0,1,4.4,7.781L11.831.35a.946.946,0,0,1,1.333,0L20.6,7.781a.975.975,0,0,1-.688,1.665H15.625v8.2A1.169,1.169,0,0,1,14.453,18.821ZM25,18.431V23.9a1.169,1.169,0,0,1-1.172,1.172H1.172A1.169,1.169,0,0,1,0,23.9V18.431a1.169,1.169,0,0,1,1.172-1.172H7.813v.391a2.736,2.736,0,0,0,2.734,2.734h3.906a2.736,2.736,0,0,0,2.734-2.734v-.391h6.641A1.169,1.169,0,0,1,25,18.431Zm-6.055,4.3a.977.977,0,1,0-.977.977A.979.979,0,0,0,18.945,22.728Zm3.125,0a.977.977,0,1,0-.977.977A.979.979,0,0,0,22.07,22.728Z" transform="translate(0 -0.075)"/></svg>