<svg xmlns="http://www.w3.org/2000/svg" width="31" height="25" viewBox="0 0 31 25"><path d="M30.225,10.156h-3.1V7.031a.78.78,0,0,0-.775-.781H24.8a.78.78,0,0,0-.775.781v3.125h-3.1a.78.78,0,0,0-.775.781V12.5a.78.78,0,0,0,.775.781h3.1v3.125a.78.78,0,0,0,.775.781h1.55a.78.78,0,0,0,.775-.781V13.281h3.1A.78.78,0,0,0,31,12.5V10.938A.78.78,0,0,0,30.225,10.156ZM10.85,12.5a6.25,6.25,0,1,0-6.2-6.25A6.225,6.225,0,0,0,10.85,12.5Zm4.34,1.563h-.809a8.371,8.371,0,0,1-7.062,0H6.51A6.538,6.538,0,0,0,0,20.625v2.031A2.335,2.335,0,0,0,2.325,25h17.05A2.335,2.335,0,0,0,21.7,22.656V20.625A6.538,6.538,0,0,0,15.19,14.063Z"/></svg>