<svg xmlns="http://www.w3.org/2000/svg" width="30.859" height="25" viewBox="0 0 30.859 25"><path d="M10.641,9.375H9.469a.781.781,0,0,0-.781.781v4.688a.781.781,0,0,0,.781.781h1.172a.781.781,0,0,0,.781-.781V10.156A.781.781,0,0,0,10.641,9.375ZM5.953,10.938H4.781A.781.781,0,0,0,4,11.719v1.563a.781.781,0,0,0,.781.781H5.953a.781.781,0,0,0,.781-.781V11.719A.781.781,0,0,0,5.953,10.938Zm9.375-6.25H14.156a.781.781,0,0,0-.781.781V19.531a.781.781,0,0,0,.781.781h1.172a.781.781,0,0,0,.781-.781V5.469A.781.781,0,0,0,15.328,4.688Zm18.75,6.25H32.906a.781.781,0,0,0-.781.781v1.563a.781.781,0,0,0,.781.781h1.172a.781.781,0,0,0,.781-.781V11.719A.781.781,0,0,0,34.078,10.938ZM29.391,3.125H28.219a.781.781,0,0,0-.781.781V21.094a.781.781,0,0,0,.781.781h1.172a.781.781,0,0,0,.781-.781V3.906A.781.781,0,0,0,29.391,3.125ZM24.7,6.25H23.531a.781.781,0,0,0-.781.781V17.969a.781.781,0,0,0,.781.781H24.7a.781.781,0,0,0,.781-.781V7.031A.781.781,0,0,0,24.7,6.25ZM20.016,0H18.844a.781.781,0,0,0-.781.781V24.219a.781.781,0,0,0,.781.781h1.172a.781.781,0,0,0,.781-.781V.781A.781.781,0,0,0,20.016,0Z" transform="translate(-4)"/></svg>