<svg id="Ebene_1" data-name="Ebene 1" xmlns="http://www.w3.org/2000/svg" viewBox="0 0 365 53"><path d="M61.9862,5.0933h9.1855v6.2509H61.9862Zm0,9.1171h9.1855V38.1792H61.9862Z"/><path d="M93.72,14.21h8.5986V36.8472l.0225,1.06a10.0147,10.0147,0,0,1-.959,4.3008,9.0538,9.0538,0,0,1-2.5508,3.3057,10.0078,10.0078,0,0,1-4.04,1.8281,25.1216,25.1216,0,0,1-5.6084.5644q-7.2218,0-9.919-2.167a7.06,7.06,0,0,1-2.6972-5.8007q0-.4512.0459-1.2188l8.914,1.0156a2.8981,2.8981,0,0,0,1.0381,1.7159,4.4005,4.4005,0,0,0,2.5508.7,3.8526,3.8526,0,0,0,2.9678-1.0606,5.4482,5.4482,0,0,0,.9814-3.7021V33.7554a8.9457,8.9457,0,0,1-7.289,3.4531,9.0863,9.0863,0,0,1-7.7647-4.1973,13.4125,13.4125,0,0,1-2.0986-7.8769q0-5.5972,2.708-8.5313a9.1974,9.1974,0,0,1,7.0869-2.9336,9.9363,9.9363,0,0,1,4.6152.9473A10.0679,10.0679,0,0,1,93.72,17.7534ZM85.0751,25.8335a5.6858,5.6858,0,0,0,1.1064,3.8486,3.92,3.92,0,0,0,5.54.2063q.13-.12.2482-.2522a5.7125,5.7125,0,0,0,1.1631-3.915,5.8947,5.8947,0,0,0-1.2188-4.0068,3.8186,3.8186,0,0,0-2.98-1.3868,3.4517,3.4517,0,0,0-2.8095,1.2745A6.6942,6.6942,0,0,0,85.0751,25.8335Z"/><path d="M107.87,14.21h8.5537v3.9043a12.7348,12.7348,0,0,1,3.8818-3.4189A10.2174,10.2174,0,0,1,125.09,13.669a7.8413,7.8413,0,0,1,5.97,2.2676q2.1549,2.2675,2.1553,7.0078V38.1792h-9.23V25a4.7984,4.7984,0,0,0-.8349-3.1943,2.9837,2.9837,0,0,0-2.3477-.9365,3.3388,3.3388,0,0,0-2.708,1.2636q-1.0386,1.2642-1.0381,4.5371V38.18H107.87Z"/><path d="M139.037,5.0933h9.1855v6.2509H139.037Zm0,9.1171h9.1855V38.1792H139.037Z"/><path d="M165.1727,5.0933V14.21h5.0557v6.727h-5.0557v8.4912a4.5505,4.5505,0,0,0,.294,2.0264,1.677,1.677,0,0,0,1.5791.7656,10.0707,10.0707,0,0,0,2.8437-.5849l.6777,6.3408a29.9368,29.9368,0,0,1-6.3652.7441,11.0778,11.0778,0,0,1-5.0557-.8789,5.3627,5.3627,0,0,1-2.4033-2.67,15.7186,15.7186,0,0,1-.7783-5.8047v-8.43H152.579V14.21h3.3857V9.81Z"/><path d="M174.9452,5.0933h9.1855v6.2509h-9.1855Zm0,9.1171h9.1855V38.1792h-9.1855Z"/><path d="M188.87,26.2632a11.99,11.99,0,0,1,3.7012-9.0391q3.7016-3.5552,9.998-3.5547,7.2,0,10.8789,4.1748a12.0991,12.0991,0,0,1,2.9561,8.2832,12.0316,12.0316,0,0,1-3.667,9.0616q-3.6679,3.5331-10.1446,3.5312a14.2259,14.2259,0,0,1-9.3437-2.9336A11.7749,11.7749,0,0,1,188.87,26.2632Zm9.208-.0235a7.2351,7.2351,0,0,0,1.2978,4.74,4.2525,4.2525,0,0,0,6.5225.0215q1.2759-1.5117,1.2754-4.8516a7.0687,7.0687,0,0,0-1.2861-4.6387,4.0073,4.0073,0,0,0-3.1827-1.5234,4.1571,4.1571,0,0,0-3.3173,1.5469,7.1509,7.1509,0,0,0-1.31,4.7056Z"/><path d="M220.829,14.21h8.5537v3.9043a12.7335,12.7335,0,0,1,3.8818-3.4189,10.2174,10.2174,0,0,1,4.7842-1.0264,7.8413,7.8413,0,0,1,5.97,2.2676q2.1548,2.2675,2.1553,7.0078V38.1792h-9.2305V25a4.7984,4.7984,0,0,0-.8349-3.1943,2.9837,2.9837,0,0,0-2.3477-.9365,3.3388,3.3388,0,0,0-2.708,1.2636q-1.0386,1.2642-1.0381,4.5371V38.18H220.829Z"/><path d="M251.703,47.2974V14.21h8.5986v3.543a11.4457,11.4457,0,0,1,3.2725-3.0234A9.374,9.374,0,0,1,268.02,13.669a8.6059,8.6059,0,0,1,7.4365,3.6778,15.2405,15.2405,0,0,1,2.6289,9.0957q0,5.9825-2.8662,9.1289a9.37,9.37,0,0,1-7.2442,3.1484,10.0483,10.0483,0,0,1-3.871-.7217,9.2274,9.2274,0,0,1-3.126-2.1435V47.2974Zm9.208-21.0342a6.3035,6.3035,0,0,0,1.1963,4.22,3.8329,3.8329,0,0,0,3.0244,1.377,3.3441,3.3441,0,0,0,2.6855-1.32q1.084-1.32,1.0831-4.48a6.658,6.658,0,0,0-1.128-4.2774,3.4505,3.4505,0,0,0-2.7539-1.3652,3.6982,3.6982,0,0,0-2.9336,1.3769A6.8539,6.8539,0,0,0,260.911,26.2632Z" style="fill:#0059ff"/><path d="M290.8612,21.9741l-8.7793-.9248a9.8478,9.8478,0,0,1,1.4326-3.6221,7.8873,7.8873,0,0,1,2.6973-2.291,11.2771,11.2771,0,0,1,3.4756-1.084,28.0257,28.0257,0,0,1,4.7851-.3828,38.0024,38.0024,0,0,1,6.6348.4629,8.5325,8.5325,0,0,1,4.1758,1.93,6.7692,6.7692,0,0,1,1.8506,2.877,10.4037,10.4037,0,0,1,.6767,3.5547V33.0786a12.7089,12.7089,0,0,0,.2149,2.6514,11.7985,11.7985,0,0,0,.9365,2.4492H300.34a8.8408,8.8408,0,0,1-.6767-1.41,10.5084,10.5084,0,0,1-.3165-1.5234,11.8841,11.8841,0,0,1-3.5878,2.4824,14.94,14.94,0,0,1-5.6651.9922q-4.2876,0-6.5107-1.9853a6.3074,6.3074,0,0,1-2.2237-4.8975,6.4134,6.4134,0,0,1,1.6026-4.4912q1.6024-1.7607,5.9131-2.6182,5.1679-1.0371,6.7031-1.4551a31.4379,31.4379,0,0,0,3.25-1.0957,3.2292,3.2292,0,0,0-.7-2.3691,3.5111,3.5111,0,0,0-2.46-.6777,6.3623,6.3623,0,0,0-3.3847.7226A3.9641,3.9641,0,0,0,290.8612,21.9741Zm7.9668,4.83q-1.8955.6768-3.9492,1.1963a9.1445,9.1445,0,0,0-3.544,1.4668,2.3479,2.3479,0,0,0-.157,3.3167q.07.0768.1463.1472a3.1918,3.1918,0,0,0,2.2226.6894,5.7054,5.7054,0,0,0,2.8545-.7451,4.5126,4.5126,0,0,0,1.8741-1.8174,6.0823,6.0823,0,0,0,.5527-2.7871Z" style="fill:#0059ff"/><path d="M311.6922,31.521l9.1172-.8574a4.4919,4.4919,0,0,0,1.58,2.3242,4.6936,4.6936,0,0,0,2.709.7,4.5772,4.5772,0,0,0,2.8662-.7891,1.759,1.759,0,0,0,.7891-1.4638,1.6752,1.6752,0,0,0-1.0381-1.5332,18.8979,18.8979,0,0,0-3.9492-.9463,41.2426,41.2426,0,0,1-6.6465-1.544,7.0144,7.0144,0,0,1-3.1377-2.4013,6.2408,6.2408,0,0,1-1.2744-3.8555,6.3132,6.3132,0,0,1,1.3759-4.0811,8.1858,8.1858,0,0,1,3.792-2.5586,20.1262,20.1262,0,0,1,6.4776-.8457,22.4041,22.4041,0,0,1,6.33.6543,8.2515,8.2515,0,0,1,3.4082,2.0313,10.646,10.646,0,0,1,2.2685,3.7236l-8.712.8584a2.9763,2.9763,0,0,0-1.1289-1.6933,4.6088,4.6088,0,0,0-2.6172-.7227,3.7138,3.7138,0,0,0-2.2684.5527,1.6484,1.6484,0,0,0-.711,1.3409,1.4284,1.4284,0,0,0,.9024,1.3291,14.566,14.566,0,0,0,3.9277.8115,26.9027,26.9027,0,0,1,6.8154,1.4433,7.5107,7.5107,0,0,1,3.42,2.6377,6.4855,6.4855,0,0,1,1.1846,3.7657A7.4041,7.4041,0,0,1,335.92,34.437a8.4686,8.4686,0,0,1-3.9492,3.1231,18.9962,18.9962,0,0,1-7.3467,1.16q-6.5669,0-9.3545-1.873A8.4167,8.4167,0,0,1,311.6922,31.521Z" style="fill:#0059ff"/><path d="M339.9266,31.521l9.1172-.8574a4.4919,4.4919,0,0,0,1.58,2.3242,4.6936,4.6936,0,0,0,2.709.7,4.5779,4.5779,0,0,0,2.8662-.7891,1.759,1.759,0,0,0,.789-1.4638,1.6752,1.6752,0,0,0-1.038-1.5332,18.8925,18.8925,0,0,0-3.9493-.9463,41.239,41.239,0,0,1-6.6464-1.544,7.0137,7.0137,0,0,1-3.1377-2.4013,6.2407,6.2407,0,0,1-1.2745-3.8555,6.3133,6.3133,0,0,1,1.376-4.0811,8.1858,8.1858,0,0,1,3.792-2.5586,20.1265,20.1265,0,0,1,6.4776-.8457,22.4034,22.4034,0,0,1,6.33.6543,8.25,8.25,0,0,1,3.4082,2.0313,10.6415,10.6415,0,0,1,2.2686,3.7236l-8.7119.8584a2.9773,2.9773,0,0,0-1.1289-1.6933,4.61,4.61,0,0,0-2.6172-.7227,3.7144,3.7144,0,0,0-2.2686.5527,1.6491,1.6491,0,0,0-.7109,1.3409,1.4286,1.4286,0,0,0,.9023,1.3291,14.5752,14.5752,0,0,0,3.9278.8115,26.9018,26.9018,0,0,1,6.8154,1.4433,7.51,7.51,0,0,1,3.42,2.6377,6.4855,6.4855,0,0,1,1.1846,3.7657,7.4043,7.4043,0,0,1-1.2529,4.0351,8.4681,8.4681,0,0,1-3.9493,3.1231,18.9957,18.9957,0,0,1-7.3466,1.16q-6.567,0-9.3545-1.873A8.4173,8.4173,0,0,1,339.9266,31.521Z" style="fill:#0059ff"/><rect x="7.663" y="8" width="37" height="37" transform="translate(-11.0754 26.2617) rotate(-45)" style="fill:#0059ff"/><rect x="13.163" y="13.5" width="26" height="26" style="fill:#fff"/><circle cx="26.163" cy="26.5" r="5"/></svg>